<?xml version="1.0" encoding="utf-8"?>
<!-- Generator: Adobe Illustrator 16.0.0, SVG Export Plug-In . SVG Version: 6.00 Build 0)  -->
<!DOCTYPE svg PUBLIC "-//W3C//DTD SVG 1.1//EN" "http://www.w3.org/Graphics/SVG/1.1/DTD/svg11.dtd">
<svg version="1.1" id="Layer_1" xmlns="http://www.w3.org/2000/svg" xmlns:xlink="http://www.w3.org/1999/xlink" x="0px" y="0px"
	 width="197.36px" height="81.153px" viewBox="0 0 197.36 81.153" enable-background="new 0 0 197.36 81.153" xml:space="preserve">
<g>
	<path fill="#D71920" d="M13.357,54.667c0,1.732-0.844,2.596-2.535,2.596H10.77c-1.689,0-2.535-0.863-2.535-2.596V3.244H0.096
		v51.423c0,2.884,1.051,5.364,3.154,7.435c1.98,1.958,4.332,2.987,7.033,3.097v0.01h0.486h0.053h0.484v-0.01
		c2.711-0.109,5.049-1.139,7.037-3.097c2.1-2.07,3.152-4.551,3.152-7.435V37.918h-8.139V54.667z"/>
	<path fill="#D71920" d="M17.293,14.113c1.039,0,1.938-0.368,2.695-1.105c0.754-0.742,1.127-1.632,1.127-2.682
		c0-1.043-0.373-1.942-1.127-2.704C19.23,6.868,18.332,6.49,17.293,6.49c-1.045,0-1.936,0.378-2.672,1.132
		c-0.736,0.762-1.102,1.661-1.102,2.704c0,1.009,0.377,1.894,1.131,2.652C15.404,13.733,16.285,14.113,17.293,14.113"/>
	<rect x="28.184" y="3.244" fill="#D71920" width="8.086" height="61.964"/>
	<rect x="168.424" fill="#D71920" width="28.84" height="3.028"/>
	<path fill="#D71920" d="M173.608,17.573h-5.4v8.002h5.406c4.359,0,8.043,1.553,11.049,4.65c3.012,3.101,4.516,6.833,4.516,11.194
		c0,4.323-1.51,8.049-4.523,11.165c-3.021,3.117-6.686,4.679-11.002,4.679h-7.004h-1.24h-14.607h-1.137h-14.717h-1.131h-7.896
		h-1.127h-7.902h-1.131h-7.893h-1.133H95.426h-1.131H86.4h-1.137H70.549h-1.131h-14.77h-0.541c-1.725,0-2.582-0.902-2.582-2.705
		v-16.64h-8.143v26.75c0,5.229-1.619,9.372-4.85,12.435l6.092,5.357c4.6-4.328,6.9-9.696,6.9-16.116v-1.676
		c0.092,0.321,0.775,0.497,2.047,0.532v0.008h0.535h0.541h14.77h1.131h14.715H86.4h7.895h1.131h11.309h1.133h7.893h1.131h7.902
		h1.127h7.896h1.131h14.717h1.137h14.607h1.24h7.004c6.541,0,12.086-2.321,16.629-6.975c4.551-4.646,6.82-10.252,6.82-16.814
		c0-6.563-2.273-12.175-6.83-16.844C185.717,19.908,180.165,17.573,173.608,17.573"/>
	<rect x="168.209" y="6.164" fill="#D71920" width="28.893" height="7.949"/>
</g>
</svg>
